<?xml version="1.0" standalone="yes"?>
<svg xmlns="http://www.w3.org/2000/svg" width="417" height="407">
<path style="fill:#fefefd; stroke:none;" d="M0 0L0 407L417 407L417 0L0 0z"/>
<path style="fill:#ece645; stroke:none;" d="M179 73L179 74C188.934 71.9507 201.782 73.5807 211 70.4113C215.846 68.7451 219.891 64.2401 224 61.2994C228.703 57.934 235.712 55.4615 236 49L222 56.6466L206 56.3673L179 73M200 55L201 56L200 55M203.667 55.3333L204.333 55.6667L203.667 55.3333z"/>
<path style="fill:#f958bf; stroke:none;" d="M102 116L107 113L103 125C122.277 115.881 134.233 99.3645 151 87.1589C160.567 80.1948 171.605 77.3879 182 72.1898C190.466 67.9564 197.739 61.5991 206 57C198.874 54.01 188.374 56.2204 181 57.6111C156.52 62.2279 134.838 75.7736 119.196 95C114.608 100.64 100.906 108.418 102 116z"/>
<path style="fill:#ece645; stroke:none;" d="M181 57L182 58L181 57z"/>
<path style="fill:#0e8cc1; stroke:none;" d="M212 71L239 76.919L253 69C239.493 57.8082 223.105 56.5227 212 71z"/>
<path style="fill:#f958bf; stroke:none;" d="M239 77L239 78L252 85L253 85C261.116 77.9317 275.171 69.532 280 60L279 59L262 70.3781L252 69.6427L239 77z"/>
<path style="fill:#ece645; stroke:none;" d="M275 60L276 61L275 60M237 61L238 62L237 61M276 64L277 65L276 64M266 67L267 68L266 67z"/>
<path style="fill:#fefefd; stroke:none;" d="M191 71.4283C177.879 73.3079 165.194 77.5016 154 84.6983C143.724 91.3046 134.421 99.7476 127.696 110C84.8604 175.299 137.696 262.881 216 252.711C228.868 251.039 240.957 246.786 252 239.934C262.144 233.641 271.636 224.905 278.329 215C321.622 150.926 269.996 60.1115 191 71.4283z"/>
<path style="fill:#ece645; stroke:none;" d="M215 71L216 72L215 71M261 71L262 72L261 71M267 71L268 72L267 71M221 72L222 73L221 72M225 73L226 74L225 73M176 74L177 75L176 74M229 74L230 75L229 74M232 75L233 76L232 75M264 75L266 77L264 75M235 76L236 77L235 76z"/>
<path style="fill:#0e8cc1; stroke:none;" d="M253 84L253 85C264.985 94.5125 274.045 104.685 283 117C286.014 114.902 292.555 111.097 292.694 106.961C292.802 103.74 289.402 100.355 287.575 98C283.048 92.1653 272.353 76.697 264 76.9468C259.988 77.0667 255.936 81.6339 253 84z"/>
<path style="fill:#ece645; stroke:none;" d="M161 80L162 81L161 80M270 80L271 81L270 80M250 83L251 84L250 83M154 84L155 85L154 84M151 86L152 87L151 86M147 89L148 90L147 89M141 94L142 95L141 94M284 94L285 95L284 94M117 97L118 98L117 97M135 100L136 101L135 100M273 103L274 104L273 103M110 104L111 105L110 104M202 105L196 114L184 108L180 124L162 121C162.239 132.562 162.096 132.112 152 137L160 152C154.416 154.341 148.805 157.464 146 163C155.212 169.305 152.788 171.963 149 181L165 185L162 202L175 200L178 214L192.787 207.538L203 219L204 219L211 209L222 216L227 199L243 202L242 189L255 187L247 171L260 163L251 155L257 143L241 139L243 121L231 122L229 111L214.105 116.13L202 105M129 107L130 108L129 107M128 108L129 109L128 108M277 108L278 109L277 108z"/>
<path style="fill:#f958bf; stroke:none;" d="M293 108L284.418 117.004L293 146L304.304 135.831L304.927 128L313 117L302 124L293 108z"/>
<path style="fill:#ece645; stroke:none;" d="M104 109L105 110L104 109M127 109C119.594 113.996 107.343 119.122 102.086 126.379C95.8918 134.929 96 149.945 96 160C112.492 150.604 113.479 140.104 120.428 124C122.404 119.421 127.471 114.007 127 109z"/>
<path style="fill:#fefefd; stroke:none;" d="M203 109C196.229 116.625 200.491 119.97 204 128L206 128C211.483 120.477 210.765 114.769 203 109z"/>
<path style="fill:#ece645; stroke:none;" d="M295 110L296 111L295 110M279 111L280 112L279 111z"/>
<path style="fill:#fefefd; stroke:none;" d="M107 112L108 113L107 112M185 112C182.335 120.408 182.002 126.975 191 131C191.723 122.709 196.506 114.323 185 112z"/>
<path style="fill:#ece645; stroke:none;" d="M296 112L297 113L296 112M100 113L101 114L100 113z"/>
<path style="fill:#fefefd; stroke:none;" d="M214 121L216 130C224.596 126.438 228.765 123.514 227 114L214 121z"/>
<path style="fill:#ece645; stroke:none;" d="M282 116L283 117L282 116M299 118L300 119L299 118M313 118L314 119L313 118z"/>
<path style="fill:#fefefd; stroke:none;" d="M196 120C191.942 129.431 193.396 134.752 199 143L200 143C203.184 133.818 203.83 126.974 196 120z"/>
<path style="fill:#ece645; stroke:none;" d="M300 120L301 121L300 120M303 123L304 124L303 123z"/>
<path style="fill:#fefefd; stroke:none;" d="M165 125C167.433 134.278 171.734 135.602 181 136C179.878 127.372 173.94 122.548 165 125M229 140C238.521 137.699 240.793 133.989 241 124C230.809 124.812 229.408 130.524 229 140M211 125C207.802 129.327 206.459 132.727 208 138C213.012 135.37 214.478 129.592 211 125M215 146C223.796 141.371 227.779 137.366 228 127C218.718 130.405 215.198 136.389 215 146z"/>
<path style="fill:#ece645; stroke:none;" d="M304 127L305 128L304 127z"/>
<path style="fill:#0e8cc1; stroke:none;" d="M303 129L304 130L303 129z"/>
<path style="fill:#fefefd; stroke:none;" d="M183 130C183.279 135.996 185.097 139.971 191 142C190.927 135.789 189.111 132.085 183 130z"/>
<path style="fill:#ece645; stroke:none;" d="M304 131L305 132L304 131z"/>
<path style="fill:#0e8cc1; stroke:none;" d="M304 132L305 133L304 132M305 135L305 138L306 138L305 135z"/>
<path style="fill:#fefefd; stroke:none;" d="M169 136C170.384 146.576 177.728 149.253 187 151C184.091 140.901 178.84 137.909 169 136M156 138C157.65 147.142 162.92 151.864 172 149C167.851 141.517 165.366 135.777 156 138z"/>
<path style="fill:#ece645; stroke:none;" d="M294 171C301.362 165.834 314.151 158.185 318 150L317 149L308 155L309 150L305 137C290.347 144.601 295.718 157.406 294 171z"/>
<path style="fill:#fefefd; stroke:none;" d="M204 138L203 150L204 150C205.357 145.718 206.893 141.838 204 138z"/>
<path style="fill:#0e8cc1; stroke:none;" d="M306 139L306 144L307 144L306 139z"/>
<path style="fill:#fefefd; stroke:none;" d="M194 140L199 150L194 140M211 140L208 151L213 140L211 140M223 149C229.346 150.581 233.53 147.162 235 141C229.098 142.15 225.741 143.379 223 149M234 149C236.314 149.733 238.636 150.18 241.002 150.742C244.355 151.539 255.406 151.276 251.839 144.514C247.443 136.182 236.32 143.539 234 149M187 143L195 154C194.044 148.723 191.577 145.709 187 143z"/>
<path style="fill:#0e8cc1; stroke:none;" d="M307 144L307 151L308 151L307 144z"/>
<path style="fill:#fefefd; stroke:none;" d="M212 154L221 146L212 154z"/>
<path style="fill:#0e8cc1; stroke:none;" d="M96 172C109.928 168.727 111.457 160.207 113 148C101.342 152.935 96 159.786 96 172z"/>
<path style="fill:#ece645; stroke:none;" d="M112 151L113 152L112 151z"/>
<path style="fill:#0e8cc1; stroke:none;" d="M308 151L308 155L309 155L308 151z"/>
<path style="fill:#fefefd; stroke:none;" d="M167 153C170.971 157.742 175.153 158.388 181 157C177.213 152.222 172.752 151.304 167 153M181 152C183.544 155.88 187.542 156.769 192 157L181 152M214 157L214 158C218.651 157.524 222.624 156.187 225 152L214 157M222 157L222 159C231.95 161.602 236.219 161.918 245 156L245 154C235.369 151.293 230.708 152.693 222 157M150 161L150 163C157.929 168.438 161.262 164.66 169 161C164.218 151.223 156.726 156.224 150 161M238 163C242.636 172.398 251.989 167.489 257 161C248.722 156.029 245.847 158.176 238 163M183 159C185.336 162.306 188.334 162.051 192 161L183 159z"/>
<path style="fill:#0e8cc1; stroke:none;" d="M307 159C303.107 162.726 297.531 166.126 295.024 171.001C292.654 175.609 292.764 181.996 291.279 187C288.161 197.505 283.477 207.158 276.985 216C265.061 232.238 246.622 245.494 227 250.522C218.149 252.79 208.713 252.123 200 254.318C190.302 256.761 188.272 265.85 177 265L177 266C216.286 270.991 253.817 265.125 281.829 234C290.891 223.932 295.489 212.333 302.363 201.039C306.326 194.53 314.845 191.52 317 184L305 192C307.37 183.568 312.788 166.639 307 159z"/>
<path style="fill:#fefefd; stroke:none;" d="M215 161C218.005 165.08 222.406 164.54 227 164L227 162L215 161M161 168L161 169C169.6 172.806 178.437 172.765 184 164C174.203 162.56 169.662 162.288 161 168z"/>
<path style="fill:#f958bf; stroke:none;" d="M111 163L97.3326 174.184L99.7307 191.7L94 201L102 197L103 201L114.879 190.91L111 163z"/>
<path style="fill:#fefefd; stroke:none;" d="M191 165L181 171C184.935 171.307 191.115 169.785 191 165M227 166C228.843 172.208 234.421 172.645 240 171L240 169L227 166M214 167L214 168L225 172C222.539 167.678 218.719 167.111 214 167M185 178L195 170L185 178M211 170C213.005 174.77 215.075 178.046 220 180L211 170z"/>
<path style="fill:#ece645; stroke:none;" d="M96.3333 172.667L96.6667 173.333L96.3333 172.667z"/>
<path style="fill:#fefefd; stroke:none;" d="M153 180C161.408 182.671 168.519 184.551 171 174C162.624 173.316 156.369 169.879 153 180z"/>
<path style="fill:#ece645; stroke:none;" d="M112 173L113 174L112 173z"/>
<path style="fill:#fefefd; stroke:none;" d="M197 173L194 184L195 184L199 173L197 173M207 173C207.491 177.522 209.091 181.49 213 184C212.317 179.458 211.04 175.478 207 173M219 173C223.177 182.233 227.683 186.157 238 187C235.085 177.163 228.839 173.422 219 173M234 174C237.574 183.443 241.005 187.262 251 186C249.16 175.806 243.544 172.795 234 174M171 182C177.339 181.864 180.967 180.295 183 174C176.763 174.151 173.794 176.442 171 182M202 174L202 186L203 186L204 174L202 174z"/>
<path style="fill:#ece645; stroke:none;" d="M308 174L309 175L308 174M293 177L294 178L293 177z"/>
<path style="fill:#fefefd; stroke:none;" d="M179 197C188.173 192.661 191.216 187.932 192 178C182.925 180.615 177.367 187.19 179 197z"/>
<path style="fill:#ece645; stroke:none;" d="M97 179L98 180L97 179z"/>
<path style="fill:#fefefd; stroke:none;" d="M216 181L215 182C216.458 187.834 217.688 192.222 224 194C223.484 187.688 221.845 183.85 216 181M206 182C203.258 191.477 204.433 195.32 209 204L211 204C213.583 194.809 212.637 190.188 208 182L206 182z"/>
<path style="fill:#ece645; stroke:none;" d="M292 182L293 183L292 182M114 184L115 185L114 184z"/>
<path style="fill:#fefefd; stroke:none;" d="M165 199C175.564 201.281 176.872 192.38 178 184C167.731 184.476 167.3 190.115 165 199M194 199C199.652 195.813 199.719 190.845 199 185C192.52 188.123 193.206 192.708 194 199M226 186L225 187C227.476 197.277 230.466 198.662 241 200C240.764 188.603 235.554 188.685 226 186z"/>
<path style="fill:#ece645; stroke:none;" d="M291 186L292 187L291 186M99 188L100 189L99 188z"/>
<path style="fill:#0e8cc1; stroke:none;" d="M99 225L110.79 218.63L117.159 226L133 244L113 262C119.128 262.87 123.745 256.924 128 253.075C134.605 247.1 142.834 243.459 150 238L150 236C135.485 225.061 121.317 209.176 117 191C112.957 192.711 104.892 196.964 104.708 202.039C104.568 205.904 108.668 209.035 107.006 212.996C104.949 217.899 99.8924 219.336 99 225z"/>
<path style="fill:#fefefd; stroke:none;" d="M180 210C189.456 206.042 191.784 202.95 191 193C181.724 195.935 176.681 200.193 180 210M216 193C214.244 201.485 210.486 208.501 221 212C224.636 203.548 225.434 196.93 216 193z"/>
<path style="fill:#ece645; stroke:none;" d="M288 195L289 196L288 195z"/>
<path style="fill:#fefefd; stroke:none;" d="M200 196C195.289 203.953 197.48 207.491 202 215C211.762 210.008 206.261 202.93 202 196L200 196z"/>
<path style="fill:#ece645; stroke:none;" d="M300 204L301 205L300 204M280 211L281 212L280 211M295 214L296 215L295 214M292 219L293 220L292 219M290 222L291 223L290 222M135 223L136 224L135 223M136 224L137 225L136 224M141 229L142 230L141 229M284 230L285 231L284 230M147 234L148 235L147 234M125 235L126 236L125 235M126 236L127 237L126 236M127 237L128 238L127 237z"/>
<path style="fill:#f958bf; stroke:none;" d="M139 248C152.651 255.6 168.504 269.663 179 250C162.854 246.623 151.333 230.504 139 248z"/>
<path style="fill:#ece645; stroke:none;" d="M128 238L129 239L128 238M157 241L158 242L157 241M131 244L132 245L131 244M270 244L271 245L270 244M165 245L166 246L165 245M266 247L267 248L266 247M172 248L173 249L172 248M130 250L131 251L130 250M143 250L144 251L143 250M160 272L161 273C165.462 271.111 168.587 266.907 173 265.194C176.628 263.786 180.317 266.241 184 265.593C189.69 264.593 195.69 257.939 198 253C192.501 252.985 186.335 250.638 181 251.368C172.972 252.467 163.187 265.156 160 272M222 251L223 252L222 251M122 252L123 253L122 252M146 252L147 253L146 252M217 252L218 253L217 252M200 253L200 254L209 254L200 253M153 256L154 257L153 256M155 257L156 258L155 257M121 258L122 259L121 258M157 258L158 259L157 258z"/>
<path style="fill:#0e8cc1; stroke:none;" d="M162 260L163 261L162 260z"/>
<path style="fill:#ece645; stroke:none;" d="M164 261L165 262L164 261z"/>
<path style="fill:#0e8cc1; stroke:none;" d="M165 261L166 262L165 261M173 264L173 265L176 265L173 264z"/>
<path style="fill:#ece645; stroke:none;" d="M232 264L233 265L232 264M224 266L225 267L224 266M218 267L219 268L218 267M196 268L197 269L196 268M209 268L210 269L209 268M85.6667 295.333L86.3333 295.667L85.6667 295.333z"/>
<path style="fill:#0e8cc1; stroke:none;" d="M87.6667 295.333L88.3333 295.667L87.6667 295.333z"/>
<path style="fill:#171715; stroke:none;" d="M110 320L92 320C93.8818 325.67 101.009 324 106 324C106 327.649 106.825 332.593 104.972 335.891C101.383 342.28 89.8229 341.898 84 339.517C73.1267 335.071 67.9603 321.448 73.4421 311C77.6903 302.904 85.2431 299.625 94 300.04C99.1851 300.286 105.789 305.465 109 300C86.7484 287.351 54.8008 306.48 68.919 333C74.6543 343.773 99.9819 353.153 108.972 340.362C112.06 335.968 110 325.226 110 320z"/>
<path style="fill:#0e8cc1; stroke:none;" d="M93 295L93 296L96 296L93 295z"/>
<path style="fill:#f958bf; stroke:none;" d="M96 295L97 296L96 295z"/>
<path style="fill:#ece645; stroke:none;" d="M97.6667 295.333L98.3333 295.667L97.6667 295.333M82 296L83 297L82 296z"/>
<path style="fill:#0e8cc1; stroke:none;" d="M83 296L84 297L83 296M101 296L102 297L101 296z"/>
<path style="fill:#ece645; stroke:none;" d="M102 296L103 297L102 296z"/>
<path style="fill:#0e8cc1; stroke:none;" d="M132 296L133 297L132 296z"/>
<path style="fill:#171715; stroke:none;" d="M138 323C142.493 323 148.073 322.053 151.671 325.318C158.338 331.366 159.715 344.218 170 345L157 322C165.47 318.674 171.87 308.011 163.772 300.394C158.476 295.413 140.908 293.361 134.318 296.603C130.964 298.254 132 303.963 132 307C131.999 316.295 128.48 334.354 132.603 342.677C136.616 350.78 138 333.701 138 332L138 323z"/>
<path style="fill:#0e8cc1; stroke:none;" d="M154 296L155 297L154 296z"/>
<path style="fill:#f958bf; stroke:none;" d="M155 296L156 297L155 296z"/>
<path style="fill:#ece645; stroke:none;" d="M156 296L157 297L156 296z"/>
<path style="fill:#0e8cc1; stroke:none;" d="M190 296L190 344L191 344C191 330.474 195.209 308.414 190 296z"/>
<path style="fill:#171715; stroke:none;" d="M191 296L191 345C198.223 345 220.532 348.795 222 340L196 340L196 322L218 322L218 317L196 317L196 301L214.995 300.981L220.079 298.17L213 296.001L191 296z"/>
<path style="fill:#0e8cc1; stroke:none;" d="M220 296L221 297L220 296M242 296L242 344L243 344C243 330.474 247.209 308.414 242 296z"/>
<path style="fill:#171715; stroke:none;" d="M243 296L243 345C250.223 345 272.532 348.795 274 340L248 340L248 322L270 322L270 317L248 317L248 301L266.995 300.981L272.079 298.17L265 296.001L243 296z"/>
<path style="fill:#0e8cc1; stroke:none;" d="M272 296L273 297L272 296M294 296L295 297L294 296z"/>
<path style="fill:#171715; stroke:none;" d="M299 345L299 303C308.562 313.389 316.978 324.978 325.8 336C328.025 338.78 332.171 346.062 336.686 344.338C340.389 342.924 339 335.051 339 332L339 296L334 296L334 338C324.737 327.363 316.214 316.013 307.4 305C305.249 302.313 300.071 293.807 295.603 297.047C292.76 299.109 294 305.975 294 309C294 316.549 290.083 343.452 299 345z"/>
<path style="fill:#f958bf; stroke:none;" d="M300 296L301 297L300 296z"/>
<path style="fill:#ece645; stroke:none;" d="M333 296L333 328L334 328L333 296M79 297L80 298L79 297z"/>
<path style="fill:#0e8cc1; stroke:none;" d="M80 297L81 298L80 297M104 297L105 298L104 297z"/>
<path style="fill:#ece645; stroke:none;" d="M105 297L106 298L105 297M159 297L160 298L159 297M301 297L302 298L301 297z"/>
<path style="fill:#f958bf; stroke:none;" d="M78 298L79 299L78 298z"/>
<path style="fill:#0e8cc1; stroke:none;" d="M106 298L107 299L106 298z"/>
<path style="fill:#ece645; stroke:none;" d="M107 298L108 299L107 298z"/>
<path style="fill:#f958bf; stroke:none;" d="M161 298L162 299L161 298z"/>
<path style="fill:#ece645; stroke:none;" d="M302 298L303 299L302 298M76 299L77 300L76 299z"/>
<path style="fill:#0e8cc1; stroke:none;" d="M108 299L109 300L108 299M75 300L76 301L75 300M85 300L86 301L85 300z"/>
<path style="fill:#ece645; stroke:none;" d="M86.6667 300.333L87.3333 300.667L86.6667 300.333M96 300L97 301L96 300z"/>
<path style="fill:#f958bf; stroke:none;" d="M97 300L98 301L97 300z"/>
<path style="fill:#0e8cc1; stroke:none;" d="M98 300L99 301L98 300z"/>
<path style="fill:#ece645; stroke:none;" d="M109 300L110 301L109 300M164 300L165 301L164 300z"/>
<path style="fill:#0e8cc1; stroke:none;" d="M220 300L221 301L220 300M272 300L273 301L272 300M303 300L304 301L303 300M82 301L83 302L82 301z"/>
<path style="fill:#ece645; stroke:none;" d="M83 301L84 302L83 301z"/>
<path style="fill:#0e8cc1; stroke:none;" d="M101 301L102 302L101 301z"/>
<path style="fill:#fefefd; stroke:none;" d="M138 301L138 318C143.558 318 150.731 319.178 155.985 317.106C162.121 314.686 163.949 306.679 157.941 302.938C152.538 299.573 144.077 301 138 301z"/>
<path style="fill:#ece645; stroke:none;" d="M154 301L155 302L154 301z"/>
<path style="fill:#f958bf; stroke:none;" d="M155 301L156 302L155 301z"/>
<path style="fill:#0e8cc1; stroke:none;" d="M156 301L157 302L156 301z"/>
<path style="fill:#ece645; stroke:none;" d="M165 301L166 302L165 301z"/>
<path style="fill:#0e8cc1; stroke:none;" d="M304 301L305 302L304 301M80 302L81 303L80 302z"/>
<path style="fill:#ece645; stroke:none;" d="M81 302L82 303L81 302M103 302L104 303L103 302M108 302L109 303L108 302z"/>
<path style="fill:#f958bf; stroke:none;" d="M158 302L159 303L158 302z"/>
<path style="fill:#ece645; stroke:none;" d="M305 302L306 303L305 302z"/>
<path style="fill:#f958bf; stroke:none;" d="M79 303L80 304L79 303z"/>
<path style="fill:#ece645; stroke:none;" d="M105 303L106 304L105 303z"/>
<path style="fill:#0e8cc1; stroke:none;" d="M107 303L108 304L107 303z"/>
<path style="fill:#ece645; stroke:none;" d="M159 303L160 304L159 303z"/>
<path style="fill:#f958bf; stroke:none;" d="M166 303L167 304L166 303z"/>
<path style="fill:#ece645; stroke:none;" d="M299 303L300 304L299 303M306 303L307 304L306 303M78 304L79 305L78 304M160 304L161 305L160 304M300 304L301 305L300 304z"/>
<path style="fill:#0e8cc1; stroke:none;" d="M70 305L71 306L70 305z"/>
<path style="fill:#ece645; stroke:none;" d="M77 305L78 306L77 305z"/>
<path style="fill:#0e8cc1; stroke:none;" d="M161 305L162 306L161 305z"/>
<path style="fill:#ece645; stroke:none;" d="M167 305L168 306L167 305z"/>
<path style="fill:#f958bf; stroke:none;" d="M301 305L302 306L301 305z"/>
<path style="fill:#0e8cc1; stroke:none;" d="M307 305L308 306L307 305z"/>
<path style="fill:#ece645; stroke:none;" d="M69 306L70 307L69 306M76 306L77 307L76 306z"/>
<path style="fill:#0e8cc1; stroke:none;" d="M167 306L167 309L168 309L167 306M302 306L303 307L302 306M308 306L309 307L308 306z"/>
<path style="fill:#ece645; stroke:none;" d="M75 307L76 308L75 307M309 307L310 308L309 307M68 308L69 309L68 308z"/>
<path style="fill:#0e8cc1; stroke:none;" d="M74 308L75 309L74 308M162 308L162 311L163 311L162 308z"/>
<path style="fill:#ece645; stroke:none;" d="M303 308L304 309L303 308M310 308L311 309L310 308M304 309L305 310L304 309M67 310L68 311L67 310z"/>
<path style="fill:#0e8cc1; stroke:none;" d="M73 310L74 311L73 310z"/>
<path style="fill:#ece645; stroke:none;" d="M299 310L299 316L300 316L299 310z"/>
<path style="fill:#f958bf; stroke:none;" d="M305 310L306 311L305 310z"/>
<path style="fill:#0e8cc1; stroke:none;" d="M311 310L312 311L311 310M67 311L68 312L67 311M167 311L168 312L167 311M306 311L307 312L306 311M312 311L313 312L312 311M72 312L73 313L72 312z"/>
<path style="fill:#ece645; stroke:none;" d="M161 312L162 313L161 312z"/>
<path style="fill:#f958bf; stroke:none;" d="M167 312L168 313L167 312z"/>
<path style="fill:#ece645; stroke:none;" d="M313 312L314 313L313 312M66 313L67 314L66 313M72 313L73 314L72 313z"/>
<path style="fill:#0e8cc1; stroke:none;" d="M161 313L162 314L161 313z"/>
<path style="fill:#ece645; stroke:none;" d="M167 313L168 314L167 313M307 313L308 314L307 313M314 313L315 314L314 313z"/>
<path style="fill:#0e8cc1; stroke:none;" d="M66.3333 314.667L66.6667 315.333L66.3333 314.667z"/>
<path style="fill:#ece645; stroke:none;" d="M160 314L161 315L160 314z"/>
<path style="fill:#0e8cc1; stroke:none;" d="M166 314L167 315L166 314z"/>
<path style="fill:#ece645; stroke:none;" d="M308 314L309 315L308 314M159 315L160 316L159 315M166 315L167 316L166 315z"/>
<path style="fill:#f958bf; stroke:none;" d="M309 315L310 316L309 315z"/>
<path style="fill:#0e8cc1; stroke:none;" d="M315 315L316 316L315 315M71.3333 316.667L71.6667 317.333L71.3333 316.667M158 316L159 317L158 316M165 316L166 317L165 316z"/>
<path style="fill:#ece645; stroke:none;" d="M196 316L197 317L196 316M248 316L249 317L248 316z"/>
<path style="fill:#f958bf; stroke:none;" d="M299 316L299 344L300 344L299 316z"/>
<path style="fill:#0e8cc1; stroke:none;" d="M310 316L311 317L310 316M316 316L317 317L316 316z"/>
<path style="fill:#ece645; stroke:none;" d="M155 317L156 318L155 317z"/>
<path style="fill:#0e8cc1; stroke:none;" d="M156 317L157 318L156 317M164 317L165 318L164 317z"/>
<path style="fill:#f958bf; stroke:none;" d="M218 317L218 321L219 321L218 317M270 317L270 321L271 321L270 317z"/>
<path style="fill:#ece645; stroke:none;" d="M317 317L318 318L317 317z"/>
<path style="fill:#f958bf; stroke:none;" d="M71 318L71 323L72 323L71 318z"/>
<path style="fill:#0e8cc1; stroke:none;" d="M138 318L139 319L138 318z"/>
<path style="fill:#f958bf; stroke:none;" d="M139 318L139 319L152 319L139 318z"/>
<path style="fill:#0e8cc1; stroke:none;" d="M152 318L153 319L152 318M163 318L164 319L163 318z"/>
<path style="fill:#ece645; stroke:none;" d="M311 318L312 319L311 318M318 318L319 319L318 318M92 319L93 320L92 319z"/>
<path style="fill:#f958bf; stroke:none;" d="M93 319L93 320L110 320L93 319z"/>
<path style="fill:#ece645; stroke:none;" d="M110 319L111 320L110 319z"/>
<path style="fill:#0e8cc1; stroke:none;" d="M162 319L163 320L162 319z"/>
<path style="fill:#ece645; stroke:none;" d="M312 319L313 320L312 319z"/>
<path style="fill:#0e8cc1; stroke:none;" d="M110 320L110 340L111 340L110 320z"/>
<path style="fill:#ece645; stroke:none;" d="M161 320L162 321L161 320z"/>
<path style="fill:#0e8cc1; stroke:none;" d="M313 320L314 321L313 320M319 320L320 321L319 320M158 321L159 322L158 321z"/>
<path style="fill:#ece645; stroke:none;" d="M159 321L160 322L159 321M218 321L219 322L218 321M270 321L271 322L270 321z"/>
<path style="fill:#0e8cc1; stroke:none;" d="M314 321L315 322L314 321M320 321L321 322L320 321z"/>
<path style="fill:#f958bf; stroke:none;" d="M321 322L322 323L321 322z"/>
<path style="fill:#0e8cc1; stroke:none;" d="M71.3333 323.667L71.6667 324.333L71.3333 323.667M92 323L93 324L92 323z"/>
<path style="fill:#ece645; stroke:none;" d="M138 323L138 324L151 324L138 323M157 323L158 324L157 323M315 323L316 324L315 323M322 323L323 324L322 323z"/>
<path style="fill:#0e8cc1; stroke:none;" d="M105 324L105 337L106 337L105 324z"/>
<path style="fill:#ece645; stroke:none;" d="M151 324L152 325L151 324M316 324L317 325L316 324z"/>
<path style="fill:#0e8cc1; stroke:none;" d="M66.3333 325.667L66.6667 326.333L66.3333 325.667M152 325L153 326L152 325M158 325L159 326L158 325M317 325L318 326L317 325M323 325L324 326L323 325z"/>
<path style="fill:#ece645; stroke:none;" d="M72 326L73 327L72 326M159 326L160 327L159 326z"/>
<path style="fill:#0e8cc1; stroke:none;" d="M318 326L319 327L318 326M324 326L325 327L324 326z"/>
<path style="fill:#ece645; stroke:none;" d="M66 327L67 328L66 327z"/>
<path style="fill:#f958bf; stroke:none;" d="M72 327L73 328L72 327z"/>
<path style="fill:#ece645; stroke:none;" d="M153 327L154 328L153 327z"/>
<path style="fill:#f958bf; stroke:none;" d="M325 327L326 328L325 327z"/>
<path style="fill:#0e8cc1; stroke:none;" d="M154 328L155 329L154 328M160 328L161 329L160 328z"/>
<path style="fill:#ece645; stroke:none;" d="M319 328L320 329L319 328M326 328L327 329L326 328M73 329L74 330L73 329M154 329L155 330L154 329M161 329L162 330L161 329z"/>
<path style="fill:#f958bf; stroke:none;" d="M320 329L321 330L320 329M67 330L68 331L67 330z"/>
<path style="fill:#0e8cc1; stroke:none;" d="M73 330L74 331L73 330z"/>
<path style="fill:#f958bf; stroke:none;" d="M155 330L156 331L155 330z"/>
<path style="fill:#0e8cc1; stroke:none;" d="M321 330L322 331L321 330M327 330L328 331L327 330z"/>
<path style="fill:#ece645; stroke:none;" d="M74 331L75 332L74 331z"/>
<path style="fill:#0e8cc1; stroke:none;" d="M162 331L163 332L162 331M322 331L323 332L322 331M328 331L329 332L328 331M68 332L69 333L68 332z"/>
<path style="fill:#ece645; stroke:none;" d="M156 332L157 333L156 332M163 332L164 333L163 332z"/>
<path style="fill:#f958bf; stroke:none;" d="M329 332L330 333L329 332z"/>
<path style="fill:#0e8cc1; stroke:none;" d="M75 333L76 334L75 333M157 333L158 334L157 333M294.333 333.667L294.667 334.333L294.333 333.667z"/>
<path style="fill:#ece645; stroke:none;" d="M323 333L324 334L323 333M330 333L331 334L330 333z"/>
<path style="fill:#f958bf; stroke:none;" d="M69 334L70 335L69 334M76 334L77 335L76 334z"/>
<path style="fill:#0e8cc1; stroke:none;" d="M164 334L165 335L164 334z"/>
<path style="fill:#f958bf; stroke:none;" d="M324 334L325 335L324 334z"/>
<path style="fill:#0e8cc1; stroke:none;" d="M70 335L71 336L70 335z"/>
<path style="fill:#f958bf; stroke:none;" d="M77 335L78 336L77 335z"/>
<path style="fill:#ece645; stroke:none;" d="M158 335L159 336L158 335M165 335L166 336L165 335z"/>
<path style="fill:#0e8cc1; stroke:none;" d="M325 335L326 336L325 335M331 335L332 336L331 335M78 336L79 337L78 336M159 336L160 337L159 336M326 336L327 337L326 336M332 336L333 337L332 336z"/>
<path style="fill:#ece645; stroke:none;" d="M71 337L72 338L71 337z"/>
<path style="fill:#0e8cc1; stroke:none;" d="M79 337L80 338L79 337M166 337L167 338L166 337M333 337L334 338L333 337z"/>
<path style="fill:#f958bf; stroke:none;" d="M72 338L73 339L72 338M81 338L82 339L81 338M103 338L104 339L103 338M160 338L161 339L160 338z"/>
<path style="fill:#ece645; stroke:none;" d="M167 338L168 339L167 338M327 338L328 339L327 338z"/>
<path style="fill:#f958bf; stroke:none;" d="M73 339L74 340L73 339z"/>
<path style="fill:#0e8cc1; stroke:none;" d="M83 339L84 340L83 339z"/>
<path style="fill:#ece645; stroke:none;" d="M84 339L85 340L84 339M100 339L101 340L100 339z"/>
<path style="fill:#0e8cc1; stroke:none;" d="M101 339L102 340L101 339M161 339L162 340L161 339z"/>
<path style="fill:#ece645; stroke:none;" d="M196 339L197 340L196 339M248 339L249 340L248 339z"/>
<path style="fill:#f958bf; stroke:none;" d="M328 339L329 340L328 339z"/>
<path style="fill:#ece645; stroke:none;" d="M74 340L75 341L74 340z"/>
<path style="fill:#0e8cc1; stroke:none;" d="M86 340L87 341L86 340z"/>
<path style="fill:#ece645; stroke:none;" d="M87.6667 340.333L88.3333 340.667L87.6667 340.333M91 340L92 341L91 340M95.6667 340.333L96.3333 340.667L95.6667 340.333z"/>
<path style="fill:#0e8cc1; stroke:none;" d="M97 340L98 341L97 340z"/>
<path style="fill:#ece645; stroke:none;" d="M110 340L111 341L110 340M161 340L162 341L161 340z"/>
<path style="fill:#f958bf; stroke:none;" d="M168 340L169 341L168 340z"/>
<path style="fill:#0e8cc1; stroke:none;" d="M329 340L330 341L329 340M76 341L77 342L76 341z"/>
<path style="fill:#f958bf; stroke:none;" d="M108 341L109 342L108 341M162 341L163 342L162 341z"/>
<path style="fill:#ece645; stroke:none;" d="M169 341L170 342L169 341z"/>
<path style="fill:#0e8cc1; stroke:none;" d="M330 341L331 342L330 341z"/>
<path style="fill:#f958bf; stroke:none;" d="M77 342L78 343L77 342z"/>
<path style="fill:#0e8cc1; stroke:none;" d="M106 342L107 343L106 342z"/>
<path style="fill:#f958bf; stroke:none;" d="M79 343L80 344L79 343z"/>
<path style="fill:#ece645; stroke:none;" d="M104 343L105 344L104 343M163 343L164 344L163 343z"/>
<path style="fill:#f958bf; stroke:none;" d="M170 343L171 344L170 343z"/>
<path style="fill:#0e8cc1; stroke:none;" d="M294.333 343.667L294.667 344.333L294.333 343.667z"/>
<path style="fill:#ece645; stroke:none;" d="M331 343L332 344L331 343M81 344L82 345L81 344z"/>
<path style="fill:#0e8cc1; stroke:none;" d="M82 344L83 345L82 344M100 344L101 345L100 344z"/>
<path style="fill:#f958bf; stroke:none;" d="M101 344L102 345L101 344z"/>
<path style="fill:#0e8cc1; stroke:none;" d="M132 344L133 345L132 344M137 344L138 345L137 344z"/>
<path style="fill:#f958bf; stroke:none;" d="M164 344L165 345L164 344z"/>
<path style="fill:#0e8cc1; stroke:none;" d="M170 344L171 345L170 344z"/>
<path style="fill:#f958bf; stroke:none;" d="M190 344L191 345L190 344z"/>
<path style="fill:#0e8cc1; stroke:none;" d="M221 344L222 345L221 344z"/>
<path style="fill:#f958bf; stroke:none;" d="M242 344L243 345L242 344z"/>
<path style="fill:#0e8cc1; stroke:none;" d="M273 344L274 345L273 344z"/>
<path style="fill:#ece645; stroke:none;" d="M299 344L300 345L299 344z"/>
<path style="fill:#f958bf; stroke:none;" d="M332 344L333 345L332 344z"/>
<path style="fill:#0e8cc1; stroke:none;" d="M338 344L339 345L338 344z"/>
<path style="fill:#ece645; stroke:none;" d="M85 345L86 346L85 345z"/>
<path style="fill:#f958bf; stroke:none;" d="M86 345L87 346L86 345z"/>
<path style="fill:#0e8cc1; stroke:none;" d="M87.6667 345.333L88.3333 345.667L87.6667 345.333M94.6667 345.333L95.3333 345.667L94.6667 345.333z"/>
<path style="fill:#f958bf; stroke:none;" d="M96 345L97 346L96 345z"/>
<path style="fill:#ece645; stroke:none;" d="M97 345L98 346L97 345z"/>
</svg>
